# Blender v3.4.1 OBJ File: 'Skeleton_Accessories_Export.blend'
# www.blender.org
mtllib Skeleton_Arrow.mtl
o Skeleton_Arrow_Cylinder.006
v -0.009299 -0.282871 -0.016107
v -0.019362 -0.297706 -0.033527
v 0.009299 -0.282871 -0.016107
v 0.018599 -0.282871 0.000000
v 0.009299 -0.282871 0.016107
v -0.009299 -0.282871 0.016107
v -0.018599 -0.282871 0.000000
v -0.038719 -0.297706 0.000000
v -0.019362 -0.297706 0.033527
v 0.019352 -0.297706 0.033527
v 0.038708 -0.297706 0.000000
v 0.019352 -0.297706 -0.033527
v -0.000005 -0.382929 0.000000
v -0.009299 0.235741 -0.016107
v 0.009299 0.235741 -0.016107
v 0.018599 0.235741 0.000000
v 0.009299 0.235741 0.016107
v -0.009299 0.235741 0.016107
v -0.018599 0.235741 0.000000
v 0.000003 0.336041 -0.014951
v -0.012960 0.336041 0.007483
v 0.012950 0.336041 0.007473
v 0.058673 0.279426 -0.033873
v 0.036743 0.365618 -0.021213
v 0.000007 0.279425 0.067748
v 0.000002 0.365614 0.042428
v -0.058667 0.279425 -0.033878
v -0.036742 0.365614 -0.021214
vt 0.933841 0.689770
vt 0.928401 0.689770
vt 0.922958 0.689770
vt 0.423116 0.716397
vt 0.417517 0.716397
vt 0.405398 0.663576
vt 0.417054 0.663576
vt 0.452023 0.645928
vt 0.440372 0.645928
vt 0.428711 0.546109
vt 0.423116 0.716397
vt 0.417054 0.663576
vt 0.434315 0.716397
vt 0.440372 0.663576
vt 0.434315 0.716397
vt 0.440372 0.663576
vt 0.439914 0.716397
vt 0.452023 0.663576
vt 0.417054 0.645928
vt 0.405398 0.645928
vt 0.440372 0.645928
vt 0.417054 0.645928
vt 0.912969 0.718186
vt 0.679570 0.883358
vt 0.679570 0.989228
vt 0.682071 0.989228
vt 0.682071 0.883358
vt 0.682071 0.883358
vt 0.682071 0.989228
vt 0.687072 0.883358
vt 0.687072 0.989228
vt 0.689572 0.883358
vt 0.689572 0.989228
vt 0.687072 0.883358
vt 0.687072 0.989228
vt 0.932307 0.573361
vt 0.936212 0.573361
vt 0.933841 0.669713
vt 0.924496 0.585648
vt 0.932307 0.585648
vt 0.928405 0.627625
vt 0.932307 0.573361
vt 0.924496 0.573361
vt 0.928401 0.669713
vt 0.920591 0.573361
vt 0.924496 0.573361
vt 0.922958 0.669713
vt 0.943834 0.698140
vt 0.953041 0.615338
vt 0.943834 0.718197
vt 0.933841 0.647252
vt 0.936212 0.550900
vt 0.953041 0.592877
vt 0.943834 0.675679
vt 0.936212 0.585648
vt 0.932307 0.585648
vt 0.953041 0.627625
vt 0.928401 0.698129
vt 0.928405 0.615338
vt 0.928401 0.718186
vt 0.922958 0.647252
vt 0.924496 0.550900
vt 0.928405 0.592877
vt 0.928401 0.675668
vt 0.924496 0.585648
vt 0.920591 0.585648
vt 0.903762 0.627625
vt 0.912969 0.698129
vt 0.903762 0.615338
vt 0.928401 0.647252
vt 0.924496 0.550900
vt 0.903762 0.592877
vt 0.912969 0.675668
vn -0.2310 0.9638 -0.1332
vn -0.0001 0.9638 0.2667
vn 0.2308 0.9638 -0.1332
vn -0.2967 0.8048 0.5140
vn -0.5935 0.8049 0.0000
vn -0.2968 0.8048 0.5140
vn 0.9105 -0.4136 0.0000
vn 0.4552 -0.4136 0.7885
vn 0.0000 -1.0000 0.0000
vn -0.2967 0.8048 -0.5140
vn -0.2968 0.8048 -0.5140
vn 0.2968 0.8048 -0.5141
vn 0.2968 0.8048 0.5141
vn 0.5937 0.8047 -0.0000
vn -0.4552 -0.4136 0.7885
vn -0.9105 -0.4136 0.0000
vn 0.4552 -0.4136 -0.7885
vn -0.4552 -0.4136 -0.7885
vn 0.5593 0.7634 0.3232
vn -1.0000 0.0000 0.0000
vn -0.5000 0.0000 -0.8660
vn -0.5000 0.0000 0.8660
vn 0.5000 0.0000 0.8660
vn 1.0000 0.0000 0.0000
vn 0.5000 0.0000 -0.8660
vn 0.9175 0.0162 0.3974
vn 0.8029 0.0162 0.5959
vn 0.8658 0.0234 0.4999
vn 0.0000 -0.7635 0.6458
vn -0.1146 0.0162 -0.9933
vn 0.1146 0.0162 -0.9933
vn 0.0000 0.0234 -0.9997
vn -0.8030 0.0161 0.5958
vn -0.9175 0.0161 0.3975
vn -0.8658 0.0234 0.4999
vn -0.2868 0.0229 -0.9577
vn -0.5595 0.7633 0.3230
vn 0.6860 0.0229 0.7272
vn 0.5593 -0.7635 -0.3229
vn 0.9728 0.0229 0.2304
vn -0.0002 0.7634 -0.6459
vn -0.9727 0.0229 0.2308
vn -0.5593 -0.7635 -0.3229
vn -0.6862 0.0229 0.7270
vn 0.2868 0.0229 -0.9577
usemtl skeleton
s 1
f 22/1/1 20/2/2 21/3/3
f 6/4/4 7/5/5 8/6/5 9/7/6
f 11/8/7 10/9/8 13/10/9
f 7/5/5 1/11/10 2/12/11 8/6/5
f 1/11/10 3/13/12 12/14/12 2/12/11
f 5/15/13 6/4/4 9/7/6 10/16/13
f 3/13/12 4/17/14 11/18/14 12/14/12
f 4/17/14 5/15/13 10/16/13 11/18/14
f 9/19/15 8/20/16 13/10/9
f 12/21/17 11/8/7 13/10/9
f 10/9/8 9/19/15 13/10/9
f 8/20/16 2/22/18 13/10/9
f 2/22/18 12/21/17 13/10/9
f 21/3/3 20/2/2 28/23/19
f 7/24/20 19/25/20 14/26/21 1/27/21
f 6/28/22 18/29/22 19/25/20 7/24/20
f 5/30/23 17/31/23 18/29/22 6/28/22
f 4/32/24 16/33/24 17/31/23 5/30/23
f 3/34/25 15/35/25 16/33/24 4/32/24
f 1/27/21 14/26/21 15/35/25 3/34/25
f 17/36/26 16/37/27 22/38/28
f 18/39/29 17/40/29 25/41/29
f 15/42/30 14/43/31 20/44/32
f 19/45/33 18/46/34 21/47/35
f 15/42/30 20/44/32 24/48/36 23/49/36
f 20/2/2 22/1/1 24/50/37
f 22/51/28 16/52/27 23/53/38 24/54/38
f 16/55/39 15/56/39 23/57/39
f 17/36/26 22/38/28 26/58/40 25/59/40
f 22/1/1 21/3/3 26/60/41
f 21/61/35 18/62/34 25/63/42 26/64/42
f 14/65/43 19/66/43 27/67/43
f 19/45/33 21/47/35 28/68/44 27/69/44
f 20/70/32 14/71/31 27/72/45 28/73/45
